<svg width="21" height="23" viewBox="0 0 21 23" fill="none" xmlns="http://www.w3.org/2000/svg">
<g clip-path="url(#clip0)">
<path d="M10.6887 0.970257C5.44081 0.970257 1.1889 5.65345 1.1889 11.4336C1.1889 17.2138 5.44081 21.8969 10.6887 21.8969C15.9365 21.8969 20.1884 17.2138 20.1884 11.4336C20.1884 5.65345 15.9365 0.970257 10.6887 0.970257ZM15.3466 14.1802C15.5266 14.3785 15.5266 14.6992 15.3466 14.8975L13.8297 16.564C13.6497 16.7623 13.3585 16.7623 13.1785 16.564L10.6887 13.7963L8.19497 16.564C8.01494 16.7623 7.72381 16.7623 7.54378 16.564L6.03071 14.8933C5.85068 14.695 5.85068 14.3743 6.03071 14.176L8.54355 11.4336L6.03071 8.68697C5.85068 8.48868 5.85068 8.16803 6.03071 7.96973L7.54761 6.29897C7.72764 6.10067 8.01877 6.10067 8.1988 6.29897L10.6887 9.07091L13.1823 6.30319C13.3624 6.10489 13.6535 6.10489 13.8335 6.30319L15.3504 7.97395C15.5305 8.17225 15.5305 8.4929 15.3504 8.69119L12.8338 11.4336L15.3466 14.1802Z" fill="#D9ABC0"/>
</g>
<defs>
<clipPath id="clip0">
<rect width="19.6124" height="21.6017" fill="white" transform="translate(0.884583 0.636856)"/>
</clipPath>
</defs>
</svg>
